<svg xmlns="http://www.w3.org/2000/svg" xmlns:xlink="http://www.w3.org/1999/xlink" width="268" height="347" viewBox="0 0 268 347">
  <defs>
    <filter id="Rectangle_506" x="3.5" y="6.5" width="262" height="456" filterUnits="userSpaceOnUse">
      <feOffset input="SourceAlpha"/>
      <feGaussianBlur stdDeviation="5.5" result="blur"/>
      <feFlood flood-opacity="0.302"/>
      <feComposite operator="in" in2="blur"/>
      <feComposite in="SourceGraphic"/>
    </filter>
    <clipPath id="clip-path">
      <rect id="Rectangle_507" data-name="Rectangle 507" width="223" height="411" rx="14" transform="translate(-301 0.444)" fill="#fff"/>
    </clipPath>
    <linearGradient id="linear-gradient" x1="0.5" x2="0.5" y2="1" gradientUnits="objectBoundingBox">
      <stop offset="0" stop-color="#4f6c93"/>
      <stop offset="1" stop-color="#222b43"/>
    </linearGradient>
    <filter id="Rectangle_503" x="50" y="380" width="167.547" height="61.439" filterUnits="userSpaceOnUse">
      <feOffset dy="3" input="SourceAlpha"/>
      <feGaussianBlur stdDeviation="5" result="blur-2"/>
      <feFlood flood-opacity="0.161"/>
      <feComposite operator="in" in2="blur-2"/>
      <feComposite in="SourceGraphic"/>
    </filter>
    <clipPath id="clip-Temp16">
      <rect width="268" height="347"/>
    </clipPath>
  </defs>
  <g id="Temp16" clip-path="url(#clip-Temp16)">
    <rect width="268" height="347" fill="#fff"/>
    <g transform="matrix(1, 0, 0, 1, 0, 0)" filter="url(#Rectangle_506)">
      <rect id="Rectangle_506-2" data-name="Rectangle 506" width="229" height="423" rx="14" transform="translate(20 23)"/>
    </g>
    <g id="Group_2215" data-name="Group 2215" transform="translate(-7 190)">
      <g id="Group_2214" data-name="Group 2214" transform="translate(331 -161.444)">
        <g id="Mask_Group_11" data-name="Mask Group 11" clip-path="url(#clip-path)">
          <path id="Path_2681" data-name="Path 2681" d="M0,0H236V418H0Z" transform="translate(-308 0.444)" fill="url(#linear-gradient)"/>
        </g>
        <g id="Group_497" data-name="Group 497" transform="translate(-302.52 7.469)">
          <path id="Path_117" data-name="Path 117" d="M94.566,7.1H88.1V1.3h6.466a2.893,2.893,0,0,1,2.9,2.9h0A2.893,2.893,0,0,1,94.566,7.1Z" transform="translate(116.153 -1.325)" fill="#fff"/>
          <path id="Path_118" data-name="Path 118" d="M85.7,7.1H75a2.893,2.893,0,0,1-2.9-2.9h0A2.893,2.893,0,0,1,75,1.3H85.7a2.893,2.893,0,0,1,2.9,2.9h0A2.893,2.893,0,0,1,85.7,7.1Z" transform="translate(125.018 -0.988)" fill="none" stroke="#fff" stroke-miterlimit="10" stroke-width="1"/>
          <text id="_4G" data-name="4G" transform="translate(187.771 4.192)" fill="#fff" font-size="4" font-family="Roboto-Bold, Roboto" font-weight="700"><tspan x="0" y="0">4G</tspan></text>
          <path id="Subtraction_3" data-name="Subtraction 3" d="M11.995,5.663H10.568V.674L11.995,0V5.663Zm-1.784,0H8.472v-4L10.211.842v4.82Zm-2.1,0H6.332V2.674l1.784-.842V5.663Zm-2.14,0H4.236v-2l1.739-.821v2.82Zm-2.1,0H2.14V4.653l1.739-.821V5.663Zm-2.1,0H0l1.784-.842v.842Z" transform="translate(172.861 0.624)" fill="#fff"/>
          <path id="Path_120" data-name="Path 120" d="M6.9,7.674V2.1L7.926,4.2H6.9" transform="translate(161.145 -1.431)" fill="#fff" stroke="#fff" stroke-miterlimit="10" stroke-width="1"/>
          <path id="Path_121" data-name="Path 121" d="M1.87.6V6.174L.8,4.078H1.87" transform="translate(164.525 -0.6)" fill="#fff" stroke="#fff" stroke-miterlimit="10" stroke-width="1"/>
          <text id="_10:32_AM" data-name="10:32 AM" transform="translate(11 4.975)" fill="#fff" font-size="6" font-family="Roboto-Bold, Roboto" font-weight="700"><tspan x="0" y="0">10:32 AM</tspan></text>
        </g>
        <g id="Group_2213" data-name="Group 2213" transform="translate(-214 61.73)">
          <path id="Path_1276" data-name="Path 1276" d="M404.76,792.466l0,0-1.263-2.187-10.011-17.34h-2.525l11.274,19.527,0,0h2.53Z" transform="translate(-390.959 -758.984)" fill="#42c9ce"/>
          <path id="Path_1277" data-name="Path 1277" d="M452.756,792.466l0,0-1.263-2.187-1.262-2.186-1.263-2.187-1.262-2.187-1.263-2.187-4.962-8.594h-2.525l6.224,10.78,1.263,2.187,1.263,2.187,1.262,2.186,1.263,2.187,0,0h2.53Z" transform="translate(-428.856 -758.984)" fill="#42c9ce"/>
          <path id="Path_1278" data-name="Path 1278" d="M475.488,790.275l-1.262-2.186-1.263-2.187-1.262-2.187-1.263-2.187-1.262-2.186-1.263-2.187-2.437-4.221h-2.525l3.7,6.407,2.526,4.373,1.262,2.187,1.263,2.187,1.262,2.186,1.263,2.187,0,0h2.53l0,0Z" transform="translate(-447.803 -758.984)" fill="#42c9ce"/>
          <path id="Path_1279" data-name="Path 1279" d="M504.334,706.637h-2.525L492.593,722.6l1.263,2.187Z" transform="translate(-471.207 -706.637)" fill="#fff"/>
          <path id="Path_1280" data-name="Path 1280" d="M426.235,792.466h2.525l0,0-1.263-2.187-1.262-2.186L424.97,785.9l-7.486-12.967h-2.525l8.748,15.153,1.263,2.187,1.263,2.187,0,0Z" transform="translate(-409.908 -758.984)" fill="#42c9ce"/>
          <path id="Path_1281" data-name="Path 1281" d="M505.854,729.159l13-22.522h-2.525l-11.741,20.336.014.023Z" transform="translate(-480.68 -706.637)" fill="#fff"/>
          <path id="Path_1282" data-name="Path 1282" d="M517.852,733.532l15.528-26.9h-2.525l-14.266,24.708.014.023Z" transform="translate(-490.154 -706.637)" fill="#fff"/>
          <path id="Path_1283" data-name="Path 1283" d="M547.9,706.637h-2.525l-16.79,29.082.013.023,1.249,2.164Z" transform="translate(-499.627 -706.637)" fill="#fff"/>
        </g>
        <text id="hello_bolormaa_chinua" data-name="hello, bolormaa chinua" transform="translate(-189 124.576)" fill="#fff" font-size="12" font-family="Lato-Bold, Lato" font-weight="700"><tspan x="-60.462" y="0">hello, bolormaa chinua</tspan></text>
        <g id="Group_2211" data-name="Group 2211" transform="translate(-218.429 277.395)">
          <text id="Or_enter_MPIN" data-name="Or enter MPIN" transform="translate(28.429 7.049)" fill="#fff" font-size="8" font-family="Lato-Regular, Lato"><tspan x="-26.244" y="0">Or enter MPIN</tspan></text>
          <text id="_" data-name="* * * *" transform="translate(28.429 39.72)" fill="#fff" font-size="24" font-family="Lato-Regular, Lato"><tspan x="-26.148" y="0">* * * *</tspan></text>
        </g>
        <g id="Group_2212" data-name="Group 2212" transform="translate(-217 159.808)">
          <g id="fingerprint" transform="translate(8.531 0)">
            <path id="Path_1365" data-name="Path 1365" d="M119.96,137.619a.793.793,0,0,0,.709,1.42,9.322,9.322,0,0,1,2.925-.908.793.793,0,0,0-.211-1.572A10.908,10.908,0,0,0,119.96,137.619Zm0,0" transform="translate(-108.412 -123.855)" fill="#fff"/>
            <path id="Path_1366" data-name="Path 1366" d="M52.434,372.556a.793.793,0,0,0,.752-1.044,7.929,7.929,0,0,1-.4-2.527v-2.024a.794.794,0,0,0-1.587,0v2.071a9.448,9.448,0,0,0,.476,2.98A.794.794,0,0,0,52.434,372.556Zm0,0" transform="translate(-46.441 -332.118)" fill="#fff"/>
            <path id="Path_1367" data-name="Path 1367" d="M55.193,165.132a10.184,10.184,0,0,1,1.294-1.377.794.794,0,0,0-1.048-1.19,11.7,11.7,0,0,0-1.494,1.587,12.5,12.5,0,0,0-2.117,4,13.018,13.018,0,0,0-.627,4.02v6.786a.794.794,0,1,0,1.587,0v-6.786a11.435,11.435,0,0,1,.555-3.538A10.931,10.931,0,0,1,55.193,165.132Zm0,0" transform="translate(-46.441 -147.288)" fill="#fff"/>
            <path id="Path_1368" data-name="Path 1368" d="M206.446,144.508a.793.793,0,0,0,.714-1.15,12.412,12.412,0,0,0-9.262-6.816.794.794,0,1,0-.227,1.571,10.824,10.824,0,0,1,8.06,5.959A.793.793,0,0,0,206.446,144.508Zm0,0" transform="translate(-178.673 -123.836)" fill="#fff"/>
            <path id="Path_1369" data-name="Path 1369" d="M131.367,210.57a5.98,5.98,0,0,0-5.947-5.77,5.426,5.426,0,0,0-1.026.091,5.921,5.921,0,0,0-3.542,2.055,5.714,5.714,0,0,0-1.361,3.375,2.79,2.79,0,0,0-.025.43v3.737c0,1.485,0,3.279.008,5.174a9.354,9.354,0,0,0,3.435,7.263,74.462,74.462,0,0,0,6.438,4.724l.844-1.343a73.14,73.14,0,0,1-6.277-4.608,7.8,7.8,0,0,1-2.857-6.086c0-1.848,0-3.64,0-5.123v-3.737a1.658,1.658,0,0,1,.015-.265,4.23,4.23,0,0,1,1-2.522,4.351,4.351,0,0,1,2.613-1.513,3.841,3.841,0,0,1,.738-.065,4.383,4.383,0,0,1,4.36,4.245.485.485,0,0,0,.007.119V214.8a8.844,8.844,0,0,0,.861,3.828.794.794,0,1,0,1.438-.673,7.368,7.368,0,0,1-.714-3.211v-3.991A1.779,1.779,0,0,0,131.367,210.57Zm0,0" transform="translate(-108.355 -185.755)" fill="#fff"/>
            <path id="Path_1370" data-name="Path 1370" d="M157.569,247.136v.094a9.341,9.341,0,0,0,3.425,7.181l.839.685a.794.794,0,0,0,1-1.231l-.843-.683a7.752,7.752,0,0,1-2.836-5.959v-.091c.008-1.659.008-3.095.008-4.085v-1.255a2.957,2.957,0,0,0-.923-2.136,2.722,2.722,0,0,0-2.029-.758,2.773,2.773,0,0,0-2.611,2.767v2.222c0,1.107,0,2.539.008,4.105v1.042a9.31,9.31,0,0,0,3.446,7.239c1.535,1.248,2.927,2.38,3.9,3.164a.768.768,0,0,0,.079.071c.231.183.436.35.613.493l.185.15a.794.794,0,0,0,1-1.233l-.183-.148c-.159-.131-.346-.281-.551-.445a.753.753,0,0,0-.069-.062c-.976-.789-2.4-1.941-3.968-3.219a7.728,7.728,0,0,1-2.861-6.008v-1.05c-.012-1.569-.012-3-.012-4.1v-2.222a1.18,1.18,0,0,1,.346-.834,1.2,1.2,0,0,1,.77-.343,1.11,1.11,0,0,1,.841.325,1.358,1.358,0,0,1,.427.982v1.255C157.573,244.033,157.573,245.468,157.569,247.136Zm0,0" transform="translate(-139.318 -216.679)" fill="#fff"/>
            <path id="Path_1371" data-name="Path 1371" d="M60.526,4.222a.788.788,0,0,0,.364-.089A22.651,22.651,0,0,1,76.224,2.124.794.794,0,0,0,76.57.575,24.236,24.236,0,0,0,60.161,2.724a.793.793,0,0,0,.365,1.5Zm0,0" transform="translate(-54.178 0)" fill="#fff"/>
            <path id="Path_1372" data-name="Path 1372" d="M265.22,18.672a22.856,22.856,0,0,1,3.067,1.534.794.794,0,1,0,.816-1.361,24.3,24.3,0,0,0-3.281-1.64.794.794,0,0,0-.6,1.468Zm0,0" transform="translate(-240.128 -15.557)" fill="#fff"/>
            <path id="Path_1373" data-name="Path 1373" d="M17.854,42.064a.794.794,0,0,0,.567-.238,20.558,20.558,0,0,1,19.859-5.432.793.793,0,1,0,.41-1.532,22.139,22.139,0,0,0-21.4,5.854.794.794,0,0,0,.567,1.349Zm0,0" transform="translate(-15.473 -30.955)" fill="#fff"/>
            <path id="Path_1374" data-name="Path 1374" d="M274.564,58.95a.794.794,0,0,0,.1-1.118,23.318,23.318,0,0,0-8.6-6.38c-.015-.007-.028-.014-.044-.02-.13-.056-.257-.119-.388-.173a.794.794,0,0,0-.6,1.468,21.76,21.76,0,0,1,8.421,6.123.794.794,0,0,0,1.118.1Zm0,0" transform="translate(-239.933 -46.437)" fill="#fff"/>
            <path id="Path_1375" data-name="Path 1375" d="M69.084,80.726a.792.792,0,0,0,.422-.122,18.981,18.981,0,0,1,5.332-2.284.793.793,0,1,0-.4-1.536,20.548,20.548,0,0,0-5.778,2.477.794.794,0,0,0,.421,1.465Zm0,0" transform="translate(-61.943 -69.616)" fill="#fff"/>
            <path id="Path_1376" data-name="Path 1376" d="M.536,127.718a.793.793,0,0,0,1.008-.494,15.8,15.8,0,0,1,3.779-6.046A.793.793,0,0,0,4.2,120.064a17.372,17.372,0,0,0-4.156,6.647.794.794,0,0,0,.494,1.008Zm0,0" transform="translate(0 -108.717)" fill="#fff"/>
            <path id="Path_1377" data-name="Path 1377" d="M195.867,79.366a.794.794,0,0,0,.714-1.143A18.415,18.415,0,0,0,180,68.256a.794.794,0,0,0,0,1.587,16.823,16.823,0,0,1,15.156,9.078A.793.793,0,0,0,195.867,79.366Zm0,0" transform="translate(-162.539 -61.908)" fill="#fff"/>
            <path id="Path_1378" data-name="Path 1378" d="M293.326,158.119a.794.794,0,0,0,.675-1.208,15.957,15.957,0,0,0-2.5-3.107.793.793,0,1,0-1.1,1.141,14.358,14.358,0,0,1,2.256,2.8A.793.793,0,0,0,293.326,158.119Zm0,0" transform="translate(-263.172 -139.297)" fill="#fff"/>
            <path id="Path_1379" data-name="Path 1379" d="M19.938,112.113a14.255,14.255,0,0,1,13.406-8.161.806.806,0,0,0,.814-.772.793.793,0,0,0-.772-.814A15.851,15.851,0,0,0,18.5,111.438a14.961,14.961,0,0,0-1.414,5.592c-.007.263-.014.533-.014.8,0,1.775,0,2.727.009,2.828a.793.793,0,0,0,.793.738h.041a.794.794,0,0,0,.753-.825c-.01-.213-.01-2.61-.01-2.741,0-.254.008-.507.015-.733A13.351,13.351,0,0,1,19.938,112.113Zm0,0" transform="translate(-15.483 -92.838)" fill="#fff"/>
            <path id="Path_1380" data-name="Path 1380" d="M222.793,108.878a10.627,10.627,0,0,1,3.466,1.736.793.793,0,1,0,.952-1.27,12.239,12.239,0,0,0-3.994-1.995l-.243-.068a.794.794,0,0,0-.413,1.533Zm0,0" transform="translate(-201.342 -97.283)" fill="#fff"/>
            <path id="Path_1381" data-name="Path 1381" d="M95.69,170.714a9.549,9.549,0,0,0-6.129,1.444,9.22,9.22,0,0,0-2.921,2.978,8.736,8.736,0,0,0-1.225,3.47,8.518,8.518,0,0,0-.079,1.182V190.2a9.279,9.279,0,0,0,3.519,7.269c1.23.986,2.6,1.97,3.8,2.839.952.684,1.846,1.331,2.5,1.852a.793.793,0,0,0,.989-1.241c-.686-.546-1.6-1.2-2.562-1.9-1.19-.857-2.539-1.825-3.737-2.79a7.716,7.716,0,0,1-2.925-6.069V179.788a7.449,7.449,0,0,1,1.072-3.828,7.634,7.634,0,0,1,2.42-2.467,7.969,7.969,0,0,1,5.109-1.2c3.3.35,5.69,3.23,6.514,5.757a.794.794,0,0,0,1.508-.492C102.538,174.46,99.717,171.139,95.69,170.714Zm0,0" transform="translate(-77.4 -154.792)" fill="#fff"/>
            <path id="Path_1382" data-name="Path 1382" d="M292.711,204.8h-.794A10.328,10.328,0,0,0,281.6,215.117v17.458a.794.794,0,0,0,1.587,0V215.117a8.739,8.739,0,0,1,8.729-8.729h.794a8.739,8.739,0,0,1,8.728,8.729v17.458a.794.794,0,0,0,1.587,0V215.117A10.328,10.328,0,0,0,292.711,204.8Zm0,0" transform="translate(-255.415 -185.756)" fill="#fff"/>
            <path id="Path_1383" data-name="Path 1383" d="M328.974,258.673a1.514,1.514,0,0,0,1.134-1.293l.7-6.257a1.492,1.492,0,0,0-.59-1.356,11.621,11.621,0,0,0-13.88,0,1.491,1.491,0,0,0-.589,1.357l.7,6.256a1.513,1.513,0,0,0,1.135,1.293,23.627,23.627,0,0,0,11.39,0Zm-10.955-1.525-.687-6.141a10.035,10.035,0,0,1,11.892,0l-.687,6.141A22.155,22.155,0,0,1,318.019,257.148Zm0,0" transform="translate(-286.378 -224.455)" fill="#fff"/>
            <path id="Path_1384" data-name="Path 1384" d="M358.276,308.835a5.582,5.582,0,0,0-7.9,0l-.184.184a.794.794,0,0,0,1.122,1.122l.184-.184a4,4,0,0,1,5.651,0l.184.184a.794.794,0,0,0,1.122-1.122Zm0,0" transform="translate(-317.429 -278.632)" fill="#fff"/>
            <path id="Path_1385" data-name="Path 1385" d="M364.75,426.668H359.2a.794.794,0,0,0,0,1.587h5.555a.794.794,0,1,0,0-1.587Zm0,0" transform="translate(-325.074 -386.992)" fill="#fff"/>
            <path id="Path_1386" data-name="Path 1386" d="M364.75,460.8H359.2a.794.794,0,0,0,0,1.587h5.555a.794.794,0,1,0,0-1.587Zm0,0" transform="translate(-325.074 -417.95)" fill="#fff"/>
          </g>
          <text id="fingerprint_login" data-name="fingerprint login" transform="translate(27 65.064)" fill="#fff" font-size="9" font-family="Lato-Regular, Lato"><tspan x="-31.644" y="0">fingerprint login</tspan></text>
        </g>
        <line id="Line_22" data-name="Line 22" x2="137.547" transform="translate(-258.5 251.691)" fill="none" stroke="#707070" stroke-width="1" stroke-dasharray="4"/>
        <g id="Group_1243" data-name="Group 1243" transform="translate(-258.549 363.326)">
          <g transform="matrix(1, 0, 0, 1, -65.45, -391.88)" filter="url(#Rectangle_503)">
            <g id="Rectangle_503-2" data-name="Rectangle 503" transform="translate(65 392)" fill="#fff" stroke="#d8d8d8" stroke-width="1">
              <rect width="137.547" height="31.439" rx="6" stroke="none"/>
              <rect x="0.5" y="0.5" width="136.547" height="30.439" rx="5.5" fill="none"/>
            </g>
          </g>
          <text id="Pre_login_menus" data-name="Pre login menus" transform="translate(68.549 19.118)" fill="#08182e" stroke="rgba(0,0,0,0)" stroke-width="1" font-size="8" font-family="Lato-Regular, Lato"><tspan x="-35.232" y="0">PRE LOGIN MENUS</tspan></text>
        </g>
      </g>
    </g>
    <g id="Group_2226" data-name="Group 2226" transform="translate(0 -54)">
      <circle id="Ellipse_153" data-name="Ellipse 153" cx="6" cy="6" r="6" transform="translate(128 85)"/>
      <path id="Path_2679" data-name="Path 2679" d="M-168.235,78.187s4.559-9.079,10.346-9.079h-31.959s9.091,3.4,10.04,9.391S-168.235,78.187-168.235,78.187Z" transform="translate(308 14)"/>
      <circle id="Ellipse_154" data-name="Ellipse 154" cx="4" cy="4" r="4" transform="translate(130 87)" fill="#242424"/>
      <circle id="Ellipse_155" data-name="Ellipse 155" cx="3" cy="3" r="3" transform="translate(131 88)" fill="#090d22"/>
      <circle id="Ellipse_156" data-name="Ellipse 156" cx="2" cy="2" r="2" transform="translate(131 89)" fill="#222536"/>
    </g>
  </g>
</svg>
