<svg xmlns="http://www.w3.org/2000/svg" xmlns:xlink="http://www.w3.org/1999/xlink" width="299" height="400" viewBox="0 0 299 400">
  <defs>
    <clipPath id="clip-Artboard_2">
      <rect width="299" height="400"/>
    </clipPath>
  </defs>
  <g id="Artboard_2" data-name="Artboard – 2" clip-path="url(#clip-Artboard_2)">
    <rect width="299" height="400" fill="#fff"/>
    <rect id="Rectangle_3" data-name="Rectangle 3" width="299" height="400" fill="#fff"/>
    <g id="Group_1" data-name="Group 1" transform="translate(-2)">
      <g id="Rectangle_1" data-name="Rectangle 1" transform="translate(31 34)" fill="#fff" stroke="#ee4123" stroke-width="1">
        <rect width="241" height="326" stroke="none"/>
        <rect x="0.5" y="0.5" width="240" height="325" fill="none"/>
      </g>
      <g id="Rectangle_2" data-name="Rectangle 2" transform="translate(31 248)" fill="#fff" stroke="#ee4123" stroke-width="1">
        <rect width="241" height="113" stroke="none"/>
        <rect x="0.5" y="0.5" width="240" height="112" fill="none"/>
      </g>
      <text id="Heuristic_Evaluation" data-name="Heuristic
Evaluation" transform="translate(150 298)" fill="#171717" font-size="26" font-family="Roboto-Regular, Roboto"><tspan x="-51.784" y="0">Heuristic</tspan><tspan fill="#ee4123" font-family="Roboto-Black, Roboto" font-weight="800"><tspan x="-61.103" y="34">Evaluation</tspan></tspan></text>
    </g>
    <g id="conversation" transform="translate(110 95)">
      <path id="Path_14" data-name="Path 14" d="M81.6,44.76a1.6,1.6,0,0,0,1.6-1.6V4.8a1.6,1.6,0,0,1,1.6-1.6h6.939l1.641,3.827a1.6,1.6,0,0,0,1.469.969h24.663a1.6,1.6,0,0,0,1.469-.969L122.617,3.2h6.939a1.6,1.6,0,0,1,1.6,1.6v3.2a1.6,1.6,0,0,0,3.2,0V4.8a4.8,4.8,0,0,0-4.8-4.8H84.8A4.8,4.8,0,0,0,80,4.8V43.161A1.6,1.6,0,0,0,81.6,44.76ZM119.138,3.2l-.684,1.6H95.9l-.684-1.6Zm0,0" transform="translate(-67.211)"/>
      <path id="Path_15" data-name="Path 15" d="M132.753,240a1.6,1.6,0,0,0-1.6,1.6v51.154a1.6,1.6,0,0,1-1.6,1.6H84.8a1.6,1.6,0,0,1-1.6-1.6V276.767a1.6,1.6,0,0,0-3.2,0v15.986a4.8,4.8,0,0,0,4.8,4.8h44.76a4.8,4.8,0,0,0,4.8-4.8V241.6A1.6,1.6,0,0,0,132.753,240Zm0,0" transform="translate(-67.211 -201.634)"/>
      <path id="Path_17" data-name="Path 17" d="M293.57,70H264.8a4.8,4.8,0,0,0-4.8,4.8V90.781a4.8,4.8,0,0,0,4.8,4.8h.449l-1.966,5.888a1.6,1.6,0,0,0,2.648,1.637l7.525-7.525h20.12a4.8,4.8,0,0,0,4.8-4.8V74.8A4.8,4.8,0,0,0,293.57,70Zm1.6,20.781a1.6,1.6,0,0,1-1.6,1.6H272.789a1.6,1.6,0,0,0-.611.124,1.584,1.584,0,0,0-.52.345l-3.2,3.2.211-.631a1.6,1.6,0,0,0-.679-3.034h-3.2a1.6,1.6,0,0,1-1.6-1.6V74.8a1.6,1.6,0,0,1,1.6-1.6H293.57a1.6,1.6,0,0,1,1.6,1.6Zm0,0" transform="translate(-218.437 -58.81)"/>
      <path id="Path_18" data-name="Path 18" d="M32.44,323.1a1.6,1.6,0,0,0,2.648-1.635l-1.968-5.889h.451a4.8,4.8,0,0,0,4.8-4.8V294.8a4.8,4.8,0,0,0-4.8-4.8H4.8A4.8,4.8,0,0,0,0,294.8v15.986a4.8,4.8,0,0,0,4.8,4.8h20.12ZM3.2,310.781V294.8a1.6,1.6,0,0,1,1.6-1.6H33.57a1.6,1.6,0,0,1,1.6,1.6v15.986a1.6,1.6,0,0,1-1.6,1.6h-3.2a1.6,1.6,0,0,0-.678,3.037l.21.639-3.2-3.2a1.621,1.621,0,0,0-1.131-.48H4.8A1.6,1.6,0,0,1,3.2,310.781Zm0,0" transform="translate(0 -243.641)"/>
      <path id="Path_19" data-name="Path 19" d="M40,340h6.394v3.2H40Zm0,0" transform="translate(-33.606 -285.649)"/>
      <path id="Path_23" data-name="Path 23" d="M40,380h7.993v3.2H40Zm0,0" transform="translate(-33.606 -319.254)"/>
      <path id="Path_25" data-name="Path 25" d="M300,120h6.394v3.2H300Zm0,0" transform="translate(-252.043 -100.817)"/>
      <path id="Path_29" data-name="Path 29" d="M300,160h7.993v3.2H300Zm0,0" transform="translate(-252.043 -134.423)"/>
      <path id="Path_31" data-name="Path 31" d="M122.789,476.394a6.394,6.394,0,1,0-6.394,6.394A6.395,6.395,0,0,0,122.789,476.394Zm-6.394,3.2a3.2,3.2,0,1,1,3.2-3.2A3.2,3.2,0,0,1,116.394,479.591Zm0,0" transform="translate(-92.416 -394.867)"/>
      <path id="Path_32" data-name="Path 32" d="M110,116.394A6.394,6.394,0,1,0,116.394,110,6.395,6.395,0,0,0,110,116.394Zm9.591,0a3.2,3.2,0,1,1-3.2-3.2A3.2,3.2,0,0,1,119.591,116.394Zm0,0" transform="translate(-92.416 -92.416)"/>
      <path id="Path_33" data-name="Path 33" d="M322.789,256.394a6.394,6.394,0,1,0-6.394,6.394A6.395,6.395,0,0,0,322.789,256.394Zm-9.591,0a3.2,3.2,0,1,1,3.2,3.2A3.2,3.2,0,0,1,313.2,256.394Zm0,0" transform="translate(-260.444 -210.036)"/>
      <path id="Path_34" data-name="Path 34" d="M200,140h7.993v3.2H200Zm0,0" transform="translate(-168.029 -117.62)"/>
      <path id="Path_35" data-name="Path 35" d="M250,290h7.993v3.2H250Zm0,0" transform="translate(-210.036 -243.641)"/>
      <path id="Path_36" data-name="Path 36" d="M200,503.2h7.993V500H200Zm0,0" transform="translate(-168.029 -420.071)"/>
    </g>
  </g>
</svg>
