<svg xmlns="http://www.w3.org/2000/svg" xmlns:xlink="http://www.w3.org/1999/xlink" width="299" height="400" viewBox="0 0 299 400">
  <defs>
    <clipPath id="clip-Artboard_10">
      <rect width="299" height="400"/>
    </clipPath>
  </defs>
  <g id="Artboard_10" data-name="Artboard – 10" clip-path="url(#clip-Artboard_10)">
    <rect width="299" height="400" fill="#fff"/>
    <rect id="Rectangle_3" data-name="Rectangle 3" width="299" height="400" fill="#fff"/>
    <g id="Group_1" data-name="Group 1" transform="translate(-2)">
      <g id="Rectangle_1" data-name="Rectangle 1" transform="translate(31 34)" fill="#fff" stroke="#ee4123" stroke-width="1">
        <rect width="241" height="326" stroke="none"/>
        <rect x="0.5" y="0.5" width="240" height="325" fill="none"/>
      </g>
      <g id="Rectangle_2" data-name="Rectangle 2" transform="translate(31 248)" fill="#fff" stroke="#ee4123" stroke-width="1">
        <rect width="241" height="113" stroke="none"/>
        <rect x="0.5" y="0.5" width="240" height="112" fill="none"/>
      </g>
      <text id="Low_Fidelity_Wireframes" data-name="Low Fidelity
Wireframes" transform="translate(150 298)" fill="#171717" font-size="26" font-family="Roboto-Regular, Roboto"><tspan x="-68.663" y="0">Low Fidelity</tspan><tspan fill="#ee4123" font-family="Roboto-Black, Roboto" font-weight="800"><tspan x="-68.034" y="34">Wireframes</tspan></tspan></text>
    </g>
    <g id="browser" transform="translate(88.769 47.062)">
      <path id="Path_87" data-name="Path 87" d="M0,145.343H122.345V45.938H0ZM3.823,49.761h114.7V141.52H3.823Z" transform="translate(0 0)"/>
      <rect id="Rectangle_23" data-name="Rectangle 23" width="38.233" height="3.823" transform="translate(42.056 109.466)"/>
      <rect id="Rectangle_24" data-name="Rectangle 24" width="76.466" height="3.823" transform="translate(22.94 120.936)"/>
      <path id="Path_88" data-name="Path 88" d="M374.569,167.555a3.168,3.168,0,1,0,3.17,3.166A3.168,3.168,0,0,0,374.569,167.555Z" transform="translate(-278.67 -91.251)"/>
      <path id="Path_89" data-name="Path 89" d="M131.887,137.813H61.25v22.94h91.759v-22.94H131.887Zm0,19.116H65.073V141.636h66.814Zm15.256-1.971-2.454-2.45a4.945,4.945,0,0,1-2.833.98,5.08,5.08,0,1,1,5.082-5.082,4.936,4.936,0,0,1-.913,2.735l2.47,2.466Z" transform="translate(-45.957 -68.935)"/>
    </g>
  </g>
</svg>
