<svg xmlns="http://www.w3.org/2000/svg" xmlns:xlink="http://www.w3.org/1999/xlink" width="299" height="400" viewBox="0 0 299 400">
  <defs>
    <clipPath id="clip-Artboard_8">
      <rect width="299" height="400"/>
    </clipPath>
  </defs>
  <g id="Artboard_8" data-name="Artboard – 8" clip-path="url(#clip-Artboard_8)">
    <rect width="299" height="400" fill="#fff"/>
    <rect id="Rectangle_3" data-name="Rectangle 3" width="299" height="400" fill="#fff"/>
    <g id="Group_1" data-name="Group 1" transform="translate(-2)">
      <g id="Rectangle_1" data-name="Rectangle 1" transform="translate(31 34)" fill="#fff" stroke="#ee4123" stroke-width="1">
        <rect width="241" height="326" stroke="none"/>
        <rect x="0.5" y="0.5" width="240" height="325" fill="none"/>
      </g>
      <g id="Rectangle_2" data-name="Rectangle 2" transform="translate(31 248)" fill="#fff" stroke="#ee4123" stroke-width="1">
        <rect width="241" height="113" stroke="none"/>
        <rect x="0.5" y="0.5" width="240" height="112" fill="none"/>
      </g>
      <text id="Cards_Sorting_IA_" data-name="Cards
Sorting (IA)" transform="translate(150 298)" fill="#171717" font-size="26" font-family="Roboto-Regular, Roboto"><tspan x="-33.846" y="0">Cards</tspan><tspan fill="#ee4123" font-family="Roboto-Black, Roboto" font-weight="800"><tspan x="-68.821" y="34">Sorting (IA)</tspan></tspan></text>
    </g>
    <g id="red-card" transform="translate(92 85)">
      <g id="Group_71" data-name="Group 71">
        <g id="Group_70" data-name="Group 70">
          <path id="Path_75" data-name="Path 75" d="M161.11,72.672V70.809a7.461,7.461,0,0,0-7.454-7.454H149.93V0H101.482V49.818l-10.2,17.846a20.39,20.39,0,0,0-1.235,17.782l12.036,30.084h30.643l6.561-24.615a39.054,39.054,0,0,0,1.323-10.083v-.706h13.044A7.461,7.461,0,0,0,161.11,72.672Zm-24.224,8.16a35.356,35.356,0,0,1-1.2,9.123L129.863,111.8H104.607L93.51,84.061A16.691,16.691,0,0,1,94.52,69.51l6.962-12.183V74.536h20.5v11.18h3.727V57.765a5.59,5.59,0,0,1,11.18,0ZM131.3,48.448a9.328,9.328,0,0,0-9.317,9.317V70.809H105.208V3.727H146.2V70.809h-5.59V57.765A9.328,9.328,0,0,0,131.3,48.448Zm26.088,24.224a3.731,3.731,0,0,1-3.727,3.727H140.613V74.536h9.317V67.082h3.727a3.731,3.731,0,0,1,3.727,3.727Z" transform="translate(-67.941)"/>
          <path id="Path_76" data-name="Path 76" d="M212.645,66.744,201.012,78.377,189.379,66.744l-2.635,2.635,11.633,11.633L186.744,92.645l2.635,2.635,11.633-11.633L212.645,95.28l2.635-2.635L203.647,81.012,215.28,69.379Z" transform="translate(-143.247 -51.198)"/>
          <path id="Path_77" data-name="Path 77" d="M26.088,0H0V31.678H26.088ZM22.361,27.951H3.727V3.727H22.361Z"/>
          <path id="Path_78" data-name="Path 78" d="M29.261,54.031l4.4-3.665,4.4,3.665,2.389-2.866-3.872-3.226,3.872-3.226-2.389-2.866-4.4,3.665-4.4-3.665-2.389,2.866,3.872,3.226-3.872,3.226Z" transform="translate(-20.613 -32.101)"/>
          <path id="Path_79" data-name="Path 79" d="M384,391.678h26.087V360H384Zm3.727-27.951h18.634v24.224H387.727Z" transform="translate(-294.557 -276.147)"/>
          <path id="Path_80" data-name="Path 80" d="M422.052,401.848l-4.4,3.665-4.4-3.665-2.389,2.866,3.872,3.226-3.872,3.226,2.389,2.866,4.4-3.665,4.4,3.665,2.389-2.866-3.872-3.226,3.872-3.226Z" transform="translate(-315.17 -308.248)"/>
          <path id="Path_81" data-name="Path 81" d="M404.979,212.432l2.409-2.409,2.409,2.409,2.635-2.635-2.409-2.409,2.409-2.409-2.635-2.635-2.409,2.409-2.409-2.409-2.635,2.635,2.409,2.409-2.409,2.409Z" transform="translate(-308.628 -155.213)"/>
          <path id="Path_82" data-name="Path 82" d="M384,0V31.678h26.087V0Zm22.361,27.951H387.727V3.727h18.634Z" transform="translate(-294.557)"/>
          <rect id="Rectangle_19" data-name="Rectangle 19" width="3.727" height="9.317" transform="translate(16.771 40.995)"/>
          <rect id="Rectangle_20" data-name="Rectangle 20" width="3.727" height="3.727" transform="translate(16.771 54.038)"/>
          <rect id="Rectangle_21" data-name="Rectangle 21" width="3.727" height="9.317" transform="translate(100.623 7.454)"/>
          <rect id="Rectangle_22" data-name="Rectangle 22" width="3.727" height="3.727" transform="translate(100.623 20.497)"/>
        </g>
      </g>
    </g>
  </g>
</svg>
