<svg xmlns="http://www.w3.org/2000/svg" xmlns:xlink="http://www.w3.org/1999/xlink" width="299" height="400" viewBox="0 0 299 400">
  <defs>
    <clipPath id="clip-Artboard_8">
      <rect width="299" height="400"/>
    </clipPath>
  </defs>
  <g id="Artboard_8" data-name="Artboard – 8" clip-path="url(#clip-Artboard_8)">
    <rect width="299" height="400" fill="#fff"/>
    <rect id="Rectangle_3" data-name="Rectangle 3" width="299" height="400" fill="#fff"/>
    <g id="Group_1" data-name="Group 1" transform="translate(-2)">
      <g id="Rectangle_1" data-name="Rectangle 1" transform="translate(31 34)" fill="#fff" stroke="#ee4123" stroke-width="1">
        <rect width="241" height="326" stroke="none"/>
        <rect x="0.5" y="0.5" width="240" height="325" fill="none"/>
      </g>
      <g id="Rectangle_2" data-name="Rectangle 2" transform="translate(31 248)" fill="#fff" stroke="#ee4123" stroke-width="1">
        <rect width="241" height="113" stroke="none"/>
        <rect x="0.5" y="0.5" width="240" height="112" fill="none"/>
      </g>
      <text id="Users_Scenarios" data-name="Users
Scenarios" transform="translate(150 298)" fill="#171717" font-size="26" font-family="Roboto-Regular, Roboto"><tspan x="-33.122" y="0">Users</tspan><tspan fill="#ee4123" font-family="Roboto-Black, Roboto" font-weight="800"><tspan x="-58.659" y="34">Scenarios</tspan></tspan></text>
    </g>
    <g id="storyboard" transform="translate(25.089 85)">
      <g id="Group_45" data-name="Group 45" transform="translate(85.911)">
        <g id="Group_44" data-name="Group 44" transform="translate(0)">
          <path id="Path_62" data-name="Path 62" d="M160.951,15.165h-3.6v-2.5a1.719,1.719,0,0,0-1.72-1.72H132.6L134.567,7.4a1.719,1.719,0,0,0-1.5-2.555h-4.373a4.869,4.869,0,0,0-9.738,0H114.58a1.72,1.72,0,0,0-1.5,2.555l1.968,3.542h-4.721a1.72,1.72,0,0,0,0,3.439h4.165l-1.462,3.071a1.72,1.72,0,0,0,1.553,2.459h18.483a1.72,1.72,0,0,0,1.553-2.459l-1.462-3.071h20.763v37.5a1.72,1.72,0,0,0,3.439,0V18.6h1.876v93.488h-1.876V68.777a1.72,1.72,0,1,0-3.439,0v43.315H89.35V14.383h3.5a1.72,1.72,0,0,0,0-3.439H87.631a1.72,1.72,0,0,0-1.72,1.72V113.812a1.719,1.719,0,0,0,1.72,1.72h73.321a1.72,1.72,0,0,0,1.72-1.72V16.885A1.72,1.72,0,0,0,160.951,15.165ZM123.822,3.439a1.432,1.432,0,0,1,1.43,1.408h-2.86A1.432,1.432,0,0,1,123.822,3.439ZM117.3,16.474h0l1.81-3.8a1.721,1.721,0,0,0-.049-1.574L117.5,8.286h1.472a1.717,1.717,0,0,0,3.393,0h2.909a1.717,1.717,0,0,0,3.393,0h1.472L128.579,11.1a1.721,1.721,0,0,0-.049,1.574l1.81,3.8Z" transform="translate(-85.911)"/>
        </g>
      </g>
      <g id="Group_47" data-name="Group 47" transform="translate(96.551 25.221)">
        <g id="Group_46" data-name="Group 46" transform="translate(0)">
          <path id="Path_63" data-name="Path 63" d="M154.379,111.773H134.786a1.72,1.72,0,0,0-1.72,1.72v19.594a1.72,1.72,0,0,0,1.72,1.72h19.594a1.72,1.72,0,0,0,1.72-1.72V113.493A1.72,1.72,0,0,0,154.379,111.773Zm-1.719,19.593H136.505V115.212H152.66Z" transform="translate(-133.066 -111.773)"/>
        </g>
      </g>
      <g id="Group_49" data-name="Group 49" transform="translate(126.499 25.221)">
        <g id="Group_48" data-name="Group 48">
          <path id="Path_64" data-name="Path 64" d="M287.1,111.773H267.506a1.72,1.72,0,0,0-1.72,1.72v19.594a1.719,1.719,0,0,0,1.72,1.72H287.1a1.72,1.72,0,0,0,1.72-1.72V113.493A1.72,1.72,0,0,0,287.1,111.773Zm-1.719,19.593H269.225V115.212H285.38Z" transform="translate(-265.786 -111.773)"/>
        </g>
      </g>
      <g id="Group_51" data-name="Group 51" transform="translate(96.552 53.828)">
        <g id="Group_50" data-name="Group 50" transform="translate(0)">
          <path id="Path_65" data-name="Path 65" d="M147.3,238.548H134.787a1.72,1.72,0,1,0,0,3.439H147.3a1.72,1.72,0,1,0,0-3.439Z" transform="translate(-133.067 -238.548)"/>
        </g>
      </g>
      <g id="Group_53" data-name="Group 53" transform="translate(96.552 61.518)">
        <g id="Group_52" data-name="Group 52" transform="translate(0)">
          <path id="Path_66" data-name="Path 66" d="M143.772,272.631h-8.986a1.72,1.72,0,1,0,0,3.439h8.986a1.72,1.72,0,1,0,0-3.439Z" transform="translate(-133.067 -272.631)"/>
        </g>
      </g>
      <g id="Group_55" data-name="Group 55" transform="translate(126.499 53.828)">
        <g id="Group_54" data-name="Group 54" transform="translate(0)">
          <path id="Path_67" data-name="Path 67" d="M280.019,238.548H267.507a1.72,1.72,0,1,0,0,3.439h12.512a1.72,1.72,0,0,0,0-3.439Z" transform="translate(-265.787 -238.548)"/>
        </g>
      </g>
      <g id="Group_57" data-name="Group 57" transform="translate(126.499 61.518)">
        <g id="Group_56" data-name="Group 56" transform="translate(0)">
          <path id="Path_68" data-name="Path 68" d="M276.492,272.631h-8.985a1.72,1.72,0,1,0,0,3.439h8.985a1.72,1.72,0,0,0,0-3.439Z" transform="translate(-265.787 -272.631)"/>
        </g>
      </g>
      <g id="Group_59" data-name="Group 59" transform="translate(96.551 67.918)">
        <g id="Group_58" data-name="Group 58" transform="translate(0)">
          <path id="Path_69" data-name="Path 69" d="M154.379,300.992H134.786a1.719,1.719,0,0,0-1.72,1.72v19.594a1.719,1.719,0,0,0,1.72,1.72h19.594a1.719,1.719,0,0,0,1.72-1.72V302.712A1.719,1.719,0,0,0,154.379,300.992Zm-1.719,19.594H136.505V304.431H152.66Z" transform="translate(-133.066 -300.992)"/>
        </g>
      </g>
      <g id="Group_61" data-name="Group 61" transform="translate(126.499 67.918)">
        <g id="Group_60" data-name="Group 60">
          <path id="Path_70" data-name="Path 70" d="M287.1,300.992H267.506a1.719,1.719,0,0,0-1.72,1.72v19.594a1.719,1.719,0,0,0,1.72,1.72H287.1a1.719,1.719,0,0,0,1.72-1.72V302.712A1.719,1.719,0,0,0,287.1,300.992Zm-1.719,19.594H269.225V304.431H285.38Z" transform="translate(-265.786 -300.992)"/>
        </g>
      </g>
      <g id="Group_63" data-name="Group 63" transform="translate(96.552 96.524)">
        <g id="Group_62" data-name="Group 62" transform="translate(0)">
          <path id="Path_71" data-name="Path 71" d="M147.3,427.768H134.787a1.72,1.72,0,1,0,0,3.439H147.3a1.72,1.72,0,1,0,0-3.439Z" transform="translate(-133.067 -427.768)"/>
        </g>
      </g>
      <g id="Group_65" data-name="Group 65" transform="translate(96.552 104.215)">
        <g id="Group_64" data-name="Group 64" transform="translate(0)">
          <path id="Path_72" data-name="Path 72" d="M143.772,461.851h-8.986a1.72,1.72,0,0,0,0,3.439h8.986a1.72,1.72,0,0,0,0-3.439Z" transform="translate(-133.067 -461.851)"/>
        </g>
      </g>
      <g id="Group_67" data-name="Group 67" transform="translate(126.499 96.524)">
        <g id="Group_66" data-name="Group 66" transform="translate(0)">
          <path id="Path_73" data-name="Path 73" d="M280.019,427.768H267.507a1.72,1.72,0,1,0,0,3.439h12.512a1.72,1.72,0,0,0,0-3.439Z" transform="translate(-265.787 -427.768)"/>
        </g>
      </g>
      <g id="Group_69" data-name="Group 69" transform="translate(126.499 104.215)">
        <g id="Group_68" data-name="Group 68" transform="translate(0)">
          <path id="Path_74" data-name="Path 74" d="M276.492,461.851h-8.985a1.72,1.72,0,0,0,0,3.439h8.985a1.72,1.72,0,0,0,0-3.439Z" transform="translate(-265.787 -461.851)"/>
        </g>
      </g>
    </g>
  </g>
</svg>
