<svg xmlns="http://www.w3.org/2000/svg" xmlns:xlink="http://www.w3.org/1999/xlink" width="299" height="400" viewBox="0 0 299 400">
  <defs>
    <clipPath id="clip-Artboard_4">
      <rect width="299" height="400"/>
    </clipPath>
  </defs>
  <g id="Artboard_4" data-name="Artboard – 4" clip-path="url(#clip-Artboard_4)">
    <rect width="299" height="400" fill="#fff"/>
    <rect id="Rectangle_3" data-name="Rectangle 3" width="299" height="400" fill="#fff"/>
    <g id="Group_1" data-name="Group 1" transform="translate(-2)">
      <g id="Rectangle_1" data-name="Rectangle 1" transform="translate(31 34)" fill="#fff" stroke="#ee4123" stroke-width="1">
        <rect width="241" height="326" stroke="none"/>
        <rect x="0.5" y="0.5" width="240" height="325" fill="none"/>
      </g>
      <g id="Rectangle_2" data-name="Rectangle 2" transform="translate(31 248)" fill="#fff" stroke="#ee4123" stroke-width="1">
        <rect width="241" height="113" stroke="none"/>
        <rect x="0.5" y="0.5" width="240" height="112" fill="none"/>
      </g>
      <text id="Design_Strategy" data-name="Design
Strategy" transform="translate(150 298)" fill="#171717" font-size="26" font-family="Roboto-Regular, Roboto"><tspan x="-39.736" y="0">Design</tspan><tspan fill="#ee4123" font-family="Roboto-Black, Roboto" font-weight="800"><tspan x="-49.988" y="34">Strategy</tspan></tspan></text>
    </g>
    <g id="analysis" transform="translate(98 86.442)">
      <path id="Path_42" data-name="Path 42" d="M141.323,93.041a5,5,0,1,0-3.987-1.993l-8.2,11.456a4.976,4.976,0,0,0-4.95,1.09l-5.464-3.1a4.99,4.99,0,1,0-9.755,0l-5.464,3.1a4.982,4.982,0,1,0,1.481,2.6l5.464-3.1a4.977,4.977,0,0,0,6.793,0l5.464,3.1a4.99,4.99,0,1,0,8.864-1.948l8.2-11.456A4.974,4.974,0,0,0,141.323,93.041Zm0-6.986a2,2,0,1,1-2,2A2,2,0,0,1,141.323,86.055Zm-41.216,23.186a2,2,0,1,1,2-2A2,2,0,0,1,100.107,109.241Zm13.739-7.8a2,2,0,1,1,2-2A2,2,0,0,1,113.846,101.44Zm13.739,7.8a2,2,0,1,1,2-2A2,2,0,0,1,127.585,109.241Z" transform="translate(-76.134 -61.234)"/>
      <path id="Path_43" data-name="Path 43" d="M83.586,107.347H4.234a1.242,1.242,0,0,1-1.24-1.24V44.35a1.242,1.242,0,0,1,1.24-1.24h7.057a1.5,1.5,0,0,0,0-2.994H4.234A4.239,4.239,0,0,0,0,44.35v61.756a4.239,4.239,0,0,0,4.234,4.234H14.555v3.294a3.407,3.407,0,0,0,3.4,3.4H32.943L25.889,130.81a1.5,1.5,0,1,0,2.664,1.365l7.753-15.136h16.55l7.753,15.136a1.5,1.5,0,1,0,2.664-1.365L56.22,117.038H71.2a3.407,3.407,0,0,0,3.4-3.4V110.34h8.979a1.5,1.5,0,0,0,0-2.994Zm-11.972,6.288a.41.41,0,0,1-.41.41H17.959a.41.41,0,0,1-.41-.41V110.34H71.614Z" transform="translate(0 -26.86)"/>
      <path id="Path_44" data-name="Path 44" d="M80.568,16.25h67.65a1.242,1.242,0,0,1,1.24,1.24V31.723a1.5,1.5,0,0,0,2.994,0V17.49a4.239,4.239,0,0,0-4.234-4.234H116.179V10.313a3.76,3.76,0,0,0-3.756-3.755h-9.1a3.76,3.76,0,0,0-3.756,3.755v2.942h-19a1.5,1.5,0,1,0,0,2.994Zm21.989-5.936a.763.763,0,0,1,.762-.762h9.1a.763.763,0,0,1,.762.762v2.942H102.557V10.313Z" transform="translate(-63.289)"/>
      <path id="Path_45" data-name="Path 45" d="M98.9,267.576a1.5,1.5,0,0,0-1.5,1.5V282.3a1.5,1.5,0,0,0,1.5,1.5h6.073a1.5,1.5,0,0,0,1.5-1.5V269.073a1.5,1.5,0,0,0-1.5-1.5Zm4.576,13.227H100.4V270.57h3.079Z" transform="translate(-77.962 -208.922)"/>
      <path id="Path_46" data-name="Path 46" d="M167.734,229.248a1.5,1.5,0,0,0-1.5,1.5v20.877a1.5,1.5,0,0,0,1.5,1.5h6.073a1.5,1.5,0,0,0,1.5-1.5V230.745a1.5,1.5,0,0,0-1.5-1.5Zm4.576,20.877h-3.079V232.242h3.079Z" transform="translate(-133.058 -178.244)"/>
      <path id="Path_47" data-name="Path 47" d="M236.57,267.576a1.5,1.5,0,0,0-1.5,1.5V282.3a1.5,1.5,0,0,0,1.5,1.5h6.073a1.5,1.5,0,0,0,1.5-1.5V269.073a1.5,1.5,0,0,0-1.5-1.5Zm4.576,13.227h-3.079V270.57h3.079Z" transform="translate(-188.155 -208.922)"/>
      <path id="Path_48" data-name="Path 48" d="M305.406,311.832a1.5,1.5,0,0,0-1.5,1.5v4.394a1.5,1.5,0,0,0,1.5,1.5h6.073a1.5,1.5,0,1,0,0-2.994H306.9v-2.9A1.5,1.5,0,0,0,305.406,311.832Z" transform="translate(-243.253 -244.345)"/>
      <path id="Path_49" data-name="Path 49" d="M337.974,192.284l-8.588-14.874a19.575,19.575,0,1,0-19.356,5.524,19.672,19.672,0,0,0,5.1.675,19.319,19.319,0,0,0,4.406-.509l8.586,14.875a5.69,5.69,0,1,0,9.856-5.69ZM310.8,180.042a16.571,16.571,0,1,1,12.574-1.656A16.464,16.464,0,0,1,310.8,180.042Zm23.589,17.423a2.7,2.7,0,0,1-3.684-.986l-8.26-14.311a19.648,19.648,0,0,0,4.668-2.7l8.263,14.312a2.694,2.694,0,0,1-.986,3.684Z" transform="translate(-236.548 -110.39)"/>
      <path id="Path_50" data-name="Path 50" d="M350.091,189.677a14.166,14.166,0,0,0-.709-10.262,1.5,1.5,0,1,0-2.708,1.276,11.212,11.212,0,1,1-3.38-4.177,1.5,1.5,0,1,0,1.806-2.387,14.215,14.215,0,1,0,4.991,15.55Z" transform="translate(-257.973 -131.815)"/>
    </g>
  </g>
</svg>
