<svg xmlns="http://www.w3.org/2000/svg" xmlns:xlink="http://www.w3.org/1999/xlink" width="299" height="400" viewBox="0 0 299 400">
  <defs>
    <clipPath id="clip-Artboard_11">
      <rect width="299" height="400"/>
    </clipPath>
  </defs>
  <g id="Artboard_11" data-name="Artboard – 11" clip-path="url(#clip-Artboard_11)">
    <rect width="299" height="400" fill="#fff"/>
    <rect id="Rectangle_3" data-name="Rectangle 3" width="299" height="400" fill="#fff"/>
    <g id="Group_1" data-name="Group 1" transform="translate(-2)">
      <g id="Rectangle_1" data-name="Rectangle 1" transform="translate(31 34)" fill="#fff" stroke="#ee4123" stroke-width="1">
        <rect width="241" height="326" stroke="none"/>
        <rect x="0.5" y="0.5" width="240" height="325" fill="none"/>
      </g>
      <g id="Rectangle_2" data-name="Rectangle 2" transform="translate(31 248)" fill="#fff" stroke="#ee4123" stroke-width="1">
        <rect width="241" height="113" stroke="none"/>
        <rect x="0.5" y="0.5" width="240" height="112" fill="none"/>
      </g>
      <text id="Prototyping_UI_Design" data-name="Prototyping &amp;
UI Design" transform="translate(150 298)" fill="#171717" font-size="26" font-family="Roboto-Regular, Roboto"><tspan x="-78.032" y="0">Prototyping &amp;</tspan><tspan fill="#ee4123" font-family="Roboto-Black, Roboto" font-weight="800"><tspan x="-56.323" y="34">UI Design</tspan></tspan></text>
    </g>
    <g id="prototype" transform="translate(-5.159 76)">
      <g id="Group_73" data-name="Group 73" transform="translate(106.159)">
        <g id="Group_72" data-name="Group 72">
          <path id="Path_90" data-name="Path 90" d="M197.249,59.457a6.758,6.758,0,0,0,6.75-6.75V6.75A6.758,6.758,0,0,0,197.249,0H174.27a6.757,6.757,0,0,0-6.75,6.75V20.687a2.152,2.152,0,0,0-1.667,3.67l3.216,3.216H142.638V6.75A6.758,6.758,0,0,0,135.888,0H112.909a6.758,6.758,0,0,0-6.75,6.75V52.707a6.758,6.758,0,0,0,6.75,6.75h9.335V73.531h-9.335a6.758,6.758,0,0,0-6.75,6.75v45.957a6.758,6.758,0,0,0,6.75,6.75h22.979a6.758,6.758,0,0,0,6.75-6.75V80.281a6.758,6.758,0,0,0-6.75-6.75h-9.335V59.457h9.335a6.758,6.758,0,0,0,6.75-6.75V31.883H169.07L165.853,35.1a2.154,2.154,0,0,0,1.523,3.677c.048,0,.1,0,.144-.007V52.707a6.758,6.758,0,0,0,6.75,6.75h9.335V73.531H174.27a6.758,6.758,0,0,0-6.75,6.75v45.957a6.758,6.758,0,0,0,6.75,6.75h22.979a6.758,6.758,0,0,0,6.75-6.75V80.281a6.758,6.758,0,0,0-6.75-6.75h-9.335V59.457h9.335ZM135.888,77.84a2.444,2.444,0,0,1,2.442,2.442v45.957a2.444,2.444,0,0,1-2.442,2.442H112.909a2.444,2.444,0,0,1-2.442-2.442V80.281a2.444,2.444,0,0,1,2.442-2.442h9.335v8.73l-3.216-3.216a2.154,2.154,0,1,0-3.047,3.046l6.894,6.894.009.008c.048.047.1.092.149.135.024.02.05.037.074.056s.062.048.1.07.06.037.09.055.06.037.091.054.063.03.094.045.064.031.1.045.062.023.094.034.07.026.105.037.063.016.1.024.072.019.109.027.074.012.112.017.064.011.1.014q.106.011.212.011t.212-.011c.033,0,.064-.009.1-.014s.075-.01.112-.017.073-.018.109-.027.064-.015.1-.024.07-.024.105-.037.063-.022.093-.034.065-.03.1-.045.063-.029.094-.045.061-.036.091-.054.061-.035.09-.055.064-.046.1-.07.05-.036.074-.056c.052-.043.1-.088.149-.135l.009-.008,6.894-6.894a2.154,2.154,0,0,0-3.047-3.046l-3.216,3.216V77.84ZM124.4,32.17a2.442,2.442,0,1,1,2.442-2.442A2.444,2.444,0,0,1,124.4,32.17Zm13.931,20.537a2.444,2.444,0,0,1-2.442,2.442h-9.335V36.124a6.78,6.78,0,0,0,4.241-4.241h7.535V52.707Zm0-25.133h-7.535a6.749,6.749,0,1,0-8.55,8.55V55.149h-9.335a2.444,2.444,0,0,1-2.442-2.442V6.75a2.444,2.444,0,0,1,2.442-2.442h22.979a2.444,2.444,0,0,1,2.442,2.442V27.574Zm35.941,27.574a2.444,2.444,0,0,1-2.442-2.442V35.217l3.965-3.965a2.154,2.154,0,0,0,0-3.046l-3.965-3.965V6.75a2.444,2.444,0,0,1,2.442-2.442h22.979a2.444,2.444,0,0,1,2.442,2.442V52.707a2.444,2.444,0,0,1-2.442,2.442h-9.335V36.124a6.75,6.75,0,1,0-4.309,0V55.149h-9.335ZM197.249,77.84a2.444,2.444,0,0,1,2.442,2.442v45.957a2.444,2.444,0,0,1-2.442,2.442H174.27a2.444,2.444,0,0,1-2.442-2.442V80.281a2.444,2.444,0,0,1,2.442-2.442h9.335v8.73l-3.216-3.216a2.154,2.154,0,1,0-3.047,3.046l6.894,6.894.009.008c.048.047.1.092.149.135.024.02.05.037.074.056s.062.048.1.07.06.037.09.055.06.037.091.054.063.03.094.045.064.031.1.045.062.023.094.034.07.026.105.037.063.016.1.024.072.019.109.027.074.012.112.017.064.011.1.014q.106.011.212.011t.212-.011c.033,0,.064-.009.1-.014s.075-.01.112-.017.073-.018.109-.027.064-.015.1-.024.07-.024.105-.037.063-.022.093-.034.065-.03.1-.045.063-.029.094-.045.061-.036.091-.054.061-.035.09-.055.064-.046.1-.07.05-.036.074-.056c.052-.043.1-.088.149-.135l.009-.008,6.894-6.894a2.154,2.154,0,0,0-3.047-3.046l-3.216,3.216V77.84ZM185.76,32.17a2.442,2.442,0,1,1,2.442-2.442A2.444,2.444,0,0,1,185.76,32.17Z" transform="translate(-106.159)"/>
        </g>
      </g>
      <g id="Group_75" data-name="Group 75" transform="translate(179.01 96.51)">
        <g id="Group_74" data-name="Group 74">
          <path id="Path_91" data-name="Path 91" d="M316.383,371.559a6.75,6.75,0,1,0,6.75,6.75A6.758,6.758,0,0,0,316.383,371.559Zm0,9.191a2.442,2.442,0,1,1,2.442-2.442A2.444,2.444,0,0,1,316.383,380.751Z" transform="translate(-309.633 -371.559)"/>
        </g>
      </g>
      <g id="Group_77" data-name="Group 77" transform="translate(117.648 96.51)">
        <g id="Group_76" data-name="Group 76">
          <path id="Path_92" data-name="Path 92" d="M157.143,371.559a6.75,6.75,0,1,0,6.75,6.75A6.758,6.758,0,0,0,157.143,371.559Zm0,9.191a2.442,2.442,0,1,1,2.442-2.442A2.444,2.444,0,0,1,157.143,380.751Z" transform="translate(-150.393 -371.559)"/>
        </g>
      </g>
    </g>
  </g>
</svg>
